<svg width="520" height="22" viewBox="0 0 520 22" fill="none" xmlns="http://www.w3.org/2000/svg">
<path d="M72.77 5.5H80.45V6.445H73.865V9.88H77.3C78.54 9.88 79.48 10.135 80.12 10.645C80.77 11.155 81.095 11.895 81.095 12.865C81.095 13.875 80.745 14.65 80.045 15.19C79.355 15.73 78.36 16 77.06 16H72.77V5.5ZM77.045 15.115C78.015 15.115 78.745 14.93 79.235 14.56C79.735 14.19 79.985 13.64 79.985 12.91C79.985 12.19 79.74 11.655 79.25 11.305C78.77 10.945 78.035 10.765 77.045 10.765H73.865V15.115H77.045ZM91.0934 15.04V16H83.6684V5.5H90.8684V6.46H84.7784V10.195H90.2084V11.14H84.7784V15.04H91.0934ZM98.0875 16.09C97.0475 16.09 96.1075 15.86 95.2675 15.4C94.4375 14.94 93.7825 14.305 93.3025 13.495C92.8325 12.675 92.5975 11.76 92.5975 10.75C92.5975 9.74 92.8325 8.83 93.3025 8.02C93.7825 7.2 94.4425 6.56 95.2825 6.1C96.1225 5.64 97.0625 5.41 98.1025 5.41C98.8825 5.41 99.6025 5.54 100.263 5.8C100.923 6.06 101.483 6.44 101.943 6.94L101.238 7.645C100.418 6.815 99.3825 6.4 98.1325 6.4C97.3025 6.4 96.5475 6.59 95.8675 6.97C95.1875 7.35 94.6525 7.87 94.2625 8.53C93.8825 9.19 93.6925 9.93 93.6925 10.75C93.6925 11.57 93.8825 12.31 94.2625 12.97C94.6525 13.63 95.1875 14.15 95.8675 14.53C96.5475 14.91 97.3025 15.1 98.1325 15.1C99.3925 15.1 100.428 14.68 101.238 13.84L101.943 14.545C101.483 15.045 100.918 15.43 100.248 15.7C99.5875 15.96 98.8675 16.09 98.0875 16.09ZM113.07 5.5V16H111.975V6.46H105.33V16H104.235V5.5H113.07ZM124.687 5.5V16H123.592V6.46H118.522L118.402 9.97C118.352 11.42 118.232 12.59 118.042 13.48C117.862 14.36 117.582 15.02 117.202 15.46C116.822 15.89 116.317 16.105 115.687 16.105C115.417 16.105 115.137 16.07 114.847 16L114.937 15.01C115.107 15.05 115.272 15.07 115.432 15.07C115.872 15.07 116.227 14.895 116.497 14.545C116.777 14.195 116.987 13.655 117.127 12.925C117.267 12.185 117.362 11.21 117.412 10L117.562 5.5H124.687ZM134.949 13.195H129.099L127.839 16H126.684L131.484 5.5H132.579L137.379 16H136.209L134.949 13.195ZM134.544 12.295L132.024 6.655L129.504 12.295H134.544ZM145.734 6.46H142.044V16H140.949V6.46H137.259V5.5H145.734V6.46ZM156.457 5.5V16H155.362V11.155H148.792V16H147.682V5.5H148.792V10.18H155.362V5.5H156.457ZM166.721 13.195H160.871L159.611 16H158.456L163.256 5.5H164.351L169.151 16H167.981L166.721 13.195ZM166.316 12.295L163.796 6.655L161.276 12.295H166.316ZM178.12 5.5V16H177.025V12.82H173.89C173.75 12.82 173.55 12.81 173.29 12.79L171.085 16H169.9L172.285 12.595C171.515 12.365 170.925 11.96 170.515 11.38C170.105 10.79 169.9 10.07 169.9 9.22C169.9 8.04 170.27 7.125 171.01 6.475C171.76 5.825 172.77 5.5 174.04 5.5H178.12ZM171.01 9.19C171.01 10.05 171.26 10.715 171.76 11.185C172.27 11.645 173.01 11.875 173.98 11.875H177.025V6.46H174.085C173.105 6.46 172.345 6.695 171.805 7.165C171.275 7.625 171.01 8.3 171.01 9.19ZM195.237 15.04V18.355H194.202V16H185.037L185.022 18.355H183.987L184.002 15.04H184.527C185.217 15 185.697 14.455 185.967 13.405C186.237 12.345 186.402 10.845 186.462 8.905L186.582 5.5H193.662V15.04H195.237ZM187.452 9.01C187.402 10.61 187.277 11.93 187.077 12.97C186.887 14 186.562 14.69 186.102 15.04H192.567V6.46H187.542L187.452 9.01ZM202.106 16.09C201.066 16.09 200.121 15.86 199.271 15.4C198.431 14.93 197.771 14.29 197.291 13.48C196.821 12.67 196.586 11.76 196.586 10.75C196.586 9.74 196.821 8.83 197.291 8.02C197.771 7.21 198.431 6.575 199.271 6.115C200.121 5.645 201.066 5.41 202.106 5.41C203.146 5.41 204.081 5.64 204.911 6.1C205.751 6.56 206.411 7.2 206.891 8.02C207.371 8.83 207.611 9.74 207.611 10.75C207.611 11.76 207.371 12.675 206.891 13.495C206.411 14.305 205.751 14.94 204.911 15.4C204.081 15.86 203.146 16.09 202.106 16.09ZM202.106 15.1C202.936 15.1 203.686 14.915 204.356 14.545C205.026 14.165 205.551 13.645 205.931 12.985C206.311 12.315 206.501 11.57 206.501 10.75C206.501 9.93 206.311 9.19 205.931 8.53C205.551 7.86 205.026 7.34 204.356 6.97C203.686 6.59 202.936 6.4 202.106 6.4C201.276 6.4 200.521 6.59 199.841 6.97C199.171 7.34 198.641 7.86 198.251 8.53C197.871 9.19 197.681 9.93 197.681 10.75C197.681 11.57 197.871 12.315 198.251 12.985C198.641 13.645 199.171 14.165 199.841 14.545C200.521 14.915 201.276 15.1 202.106 15.1ZM214.85 16.09C213.81 16.09 212.87 15.86 212.03 15.4C211.2 14.94 210.545 14.305 210.065 13.495C209.595 12.675 209.36 11.76 209.36 10.75C209.36 9.74 209.595 8.83 210.065 8.02C210.545 7.2 211.205 6.56 212.045 6.1C212.885 5.64 213.825 5.41 214.865 5.41C215.645 5.41 216.365 5.54 217.025 5.8C217.685 6.06 218.245 6.44 218.705 6.94L218 7.645C217.18 6.815 216.145 6.4 214.895 6.4C214.065 6.4 213.31 6.59 212.63 6.97C211.95 7.35 211.415 7.87 211.025 8.53C210.645 9.19 210.455 9.93 210.455 10.75C210.455 11.57 210.645 12.31 211.025 12.97C211.415 13.63 211.95 14.15 212.63 14.53C213.31 14.91 214.065 15.1 214.895 15.1C216.155 15.1 217.19 14.68 218 13.84L218.705 14.545C218.245 15.045 217.68 15.43 217.01 15.7C216.35 15.96 215.63 16.09 214.85 16.09ZM227.736 6.46H224.046V16H222.951V6.46H219.261V5.5H227.736V6.46ZM235.877 13.195H230.027L228.767 16H227.612L232.412 5.5H233.507L238.307 16H237.137L235.877 13.195ZM235.472 12.295L232.952 6.655L230.432 12.295H235.472ZM246.544 10.585C247.274 10.735 247.829 11.03 248.209 11.47C248.589 11.9 248.779 12.465 248.779 13.165C248.779 14.075 248.454 14.775 247.804 15.265C247.164 15.755 246.219 16 244.969 16H240.319V5.5H244.684C245.804 5.5 246.679 5.73 247.309 6.19C247.939 6.65 248.254 7.315 248.254 8.185C248.254 8.775 248.104 9.275 247.804 9.685C247.504 10.085 247.084 10.385 246.544 10.585ZM241.414 10.255H244.624C245.434 10.255 246.054 10.09 246.484 9.76C246.924 9.43 247.144 8.95 247.144 8.32C247.144 7.69 246.924 7.21 246.484 6.88C246.054 6.55 245.434 6.385 244.624 6.385H241.414V10.255ZM244.969 15.115C246.779 15.115 247.684 14.44 247.684 13.09C247.684 11.77 246.779 11.11 244.969 11.11H241.414V15.115H244.969ZM255.034 11.185H252.634V16H251.554V5.5H252.634V10.21H255.034L258.589 5.5H259.789L255.889 10.6L260.014 16H258.739L255.034 11.185ZM268.323 13.195H262.473L261.213 16H260.058L264.858 5.5H265.953L270.753 16H269.583L268.323 13.195ZM267.918 12.295L265.398 6.655L262.878 12.295H267.918ZM285.526 5.5V16H284.431V6.46H277.786V16H276.691V5.5H285.526ZM292.999 5.5C294.339 5.5 295.389 5.82 296.149 6.46C296.909 7.1 297.289 7.98 297.289 9.1C297.289 10.22 296.909 11.1 296.149 11.74C295.389 12.37 294.339 12.685 292.999 12.685H290.179V16H289.069V5.5H292.999ZM292.969 11.71C294.009 11.71 294.804 11.485 295.354 11.035C295.904 10.575 296.179 9.93 296.179 9.1C296.179 8.25 295.904 7.6 295.354 7.15C294.804 6.69 294.009 6.46 292.969 6.46H290.179V11.71H292.969ZM299.572 5.5H300.667V14.2L307.387 5.5H308.392V16H307.297V7.315L300.577 16H299.572V5.5ZM320.421 10.51C321.111 10.68 321.651 10.99 322.041 11.44C322.441 11.89 322.641 12.43 322.641 13.06C322.641 13.67 322.451 14.205 322.071 14.665C321.691 15.125 321.186 15.48 320.556 15.73C319.926 15.97 319.241 16.09 318.501 16.09C317.801 16.09 317.111 15.98 316.431 15.76C315.761 15.53 315.156 15.19 314.616 14.74L315.021 13.945C315.481 14.335 316.006 14.635 316.596 14.845C317.186 15.045 317.781 15.145 318.381 15.145C318.951 15.145 319.476 15.055 319.956 14.875C320.436 14.695 320.816 14.44 321.096 14.11C321.386 13.77 321.531 13.37 321.531 12.91C321.531 12.3 321.291 11.83 320.811 11.5C320.331 11.17 319.656 11.005 318.786 11.005H316.536V10.105H318.726C319.466 10.105 320.041 9.95 320.451 9.64C320.871 9.32 321.081 8.88 321.081 8.32C321.081 7.7 320.816 7.215 320.286 6.865C319.756 6.505 319.091 6.325 318.291 6.325C317.791 6.325 317.286 6.4 316.776 6.55C316.266 6.69 315.781 6.905 315.321 7.195L314.946 6.28C315.986 5.66 317.111 5.35 318.321 5.35C319.031 5.35 319.681 5.465 320.271 5.695C320.861 5.925 321.326 6.255 321.666 6.685C322.016 7.115 322.191 7.62 322.191 8.2C322.191 8.76 322.036 9.245 321.726 9.655C321.416 10.055 320.981 10.34 320.421 10.51ZM332.117 13.195H326.267L325.007 16H323.852L328.652 5.5H329.747L334.547 16H333.377L332.117 13.195ZM331.712 12.295L329.192 6.655L326.672 12.295H331.712ZM340.039 11.185H337.639V16H336.559V5.5H337.639V10.21H340.039L343.594 5.5H344.794L340.894 10.6L345.019 16H343.744L340.039 11.185ZM353.328 13.195H347.478L346.218 16H345.063L349.863 5.5H350.958L355.758 16H354.588L353.328 13.195ZM352.923 12.295L350.403 6.655L347.883 12.295H352.923ZM362.33 10.51C363.02 10.68 363.56 10.99 363.95 11.44C364.35 11.89 364.55 12.43 364.55 13.06C364.55 13.67 364.36 14.205 363.98 14.665C363.6 15.125 363.095 15.48 362.465 15.73C361.835 15.97 361.15 16.09 360.41 16.09C359.71 16.09 359.02 15.98 358.34 15.76C357.67 15.53 357.065 15.19 356.525 14.74L356.93 13.945C357.39 14.335 357.915 14.635 358.505 14.845C359.095 15.045 359.69 15.145 360.29 15.145C360.86 15.145 361.385 15.055 361.865 14.875C362.345 14.695 362.725 14.44 363.005 14.11C363.295 13.77 363.44 13.37 363.44 12.91C363.44 12.3 363.2 11.83 362.72 11.5C362.24 11.17 361.565 11.005 360.695 11.005H358.445V10.105H360.635C361.375 10.105 361.95 9.95 362.36 9.64C362.78 9.32 362.99 8.88 362.99 8.32C362.99 7.7 362.725 7.215 362.195 6.865C361.665 6.505 361 6.325 360.2 6.325C359.7 6.325 359.195 6.4 358.685 6.55C358.175 6.69 357.69 6.905 357.23 7.195L356.855 6.28C357.895 5.66 359.02 5.35 360.23 5.35C360.94 5.35 361.59 5.465 362.18 5.695C362.77 5.925 363.235 6.255 363.575 6.685C363.925 7.115 364.1 7.62 364.1 8.2C364.1 8.76 363.945 9.245 363.635 9.655C363.325 10.055 362.89 10.34 362.33 10.51ZM374.731 15.04V16H367.306V5.5H374.506V6.46H368.416V10.195H373.846V11.14H368.416V15.04H374.731ZM385.725 16.09C384.685 16.09 383.74 15.86 382.89 15.4C382.05 14.93 381.39 14.29 380.91 13.48C380.44 12.67 380.205 11.76 380.205 10.75C380.205 9.74 380.44 8.83 380.91 8.02C381.39 7.21 382.05 6.575 382.89 6.115C383.74 5.645 384.685 5.41 385.725 5.41C386.765 5.41 387.7 5.64 388.53 6.1C389.37 6.56 390.03 7.2 390.51 8.02C390.99 8.83 391.23 9.74 391.23 10.75C391.23 11.76 390.99 12.675 390.51 13.495C390.03 14.305 389.37 14.94 388.53 15.4C387.7 15.86 386.765 16.09 385.725 16.09ZM385.725 15.1C386.555 15.1 387.305 14.915 387.975 14.545C388.645 14.165 389.17 13.645 389.55 12.985C389.93 12.315 390.12 11.57 390.12 10.75C390.12 9.93 389.93 9.19 389.55 8.53C389.17 7.86 388.645 7.34 387.975 6.97C387.305 6.59 386.555 6.4 385.725 6.4C384.895 6.4 384.14 6.59 383.46 6.97C382.79 7.34 382.26 7.86 381.87 8.53C381.49 9.19 381.3 9.93 381.3 10.75C381.3 11.57 381.49 12.315 381.87 12.985C382.26 13.645 382.79 14.165 383.46 14.545C384.14 14.915 384.895 15.1 385.725 15.1ZM400.602 6.46H396.912V16H395.817V6.46H392.127V5.5H400.602V6.46ZM412.281 15.1C413.531 15.1 414.561 14.68 415.371 13.84L416.091 14.545C415.621 15.055 415.056 15.44 414.396 15.7C413.736 15.96 413.011 16.09 412.221 16.09C411.351 16.09 410.546 15.925 409.806 15.595C409.066 15.255 408.441 14.785 407.931 14.185C407.431 13.585 407.086 12.895 406.896 12.115H405.156V11.455H406.776C406.746 11.225 406.731 10.99 406.731 10.75C406.731 10.5 406.746 10.265 406.776 10.045H405.156V9.385H406.896C407.086 8.605 407.431 7.915 407.931 7.315C408.441 6.715 409.066 6.25 409.806 5.92C410.546 5.58 411.351 5.41 412.221 5.41C413.011 5.41 413.736 5.54 414.396 5.8C415.056 6.06 415.621 6.44 416.091 6.94L415.371 7.645C414.551 6.815 413.521 6.4 412.281 6.4C411.261 6.4 410.366 6.675 409.596 7.225C408.836 7.775 408.321 8.495 408.051 9.385H413.196V10.045H407.886C407.856 10.265 407.841 10.5 407.841 10.75C407.841 10.99 407.856 11.225 407.886 11.455H413.196V12.115H408.051C408.321 13.005 408.836 13.725 409.596 14.275C410.366 14.825 411.261 15.1 412.281 15.1ZM420.569 5.5V16H419.489V6.46H417.014V5.5H420.569ZM425.839 9.805C427.359 9.805 428.464 10.08 429.154 10.63C429.854 11.17 430.204 11.93 430.204 12.91C430.204 13.52 430.059 14.065 429.769 14.545C429.489 15.025 429.064 15.405 428.494 15.685C427.924 15.955 427.224 16.09 426.394 16.09C425.644 16.09 424.929 15.97 424.249 15.73C423.579 15.48 423.039 15.15 422.629 14.74L423.154 13.885C423.504 14.245 423.964 14.54 424.534 14.77C425.104 14.99 425.719 15.1 426.379 15.1C427.249 15.1 427.919 14.905 428.389 14.515C428.869 14.125 429.109 13.605 429.109 12.955C429.109 12.235 428.839 11.69 428.299 11.32C427.769 10.95 426.869 10.765 425.599 10.765H423.364L423.904 5.5H429.649V6.46H424.849L424.489 9.805H425.839ZM435.76 16.09C434.95 16.09 434.225 15.875 433.585 15.445C432.955 15.015 432.46 14.4 432.1 13.6C431.75 12.79 431.575 11.84 431.575 10.75C431.575 9.66 431.75 8.715 432.1 7.915C432.46 7.105 432.955 6.485 433.585 6.055C434.225 5.625 434.95 5.41 435.76 5.41C436.57 5.41 437.29 5.625 437.92 6.055C438.56 6.485 439.06 7.105 439.42 7.915C439.78 8.715 439.96 9.66 439.96 10.75C439.96 11.84 439.78 12.79 439.42 13.6C439.06 14.4 438.56 15.015 437.92 15.445C437.29 15.875 436.57 16.09 435.76 16.09ZM435.76 15.1C436.37 15.1 436.905 14.93 437.365 14.59C437.835 14.25 438.2 13.755 438.46 13.105C438.72 12.455 438.85 11.67 438.85 10.75C438.85 9.83 438.72 9.045 438.46 8.395C438.2 7.745 437.835 7.25 437.365 6.91C436.905 6.57 436.37 6.4 435.76 6.4C435.15 6.4 434.61 6.57 434.14 6.91C433.68 7.25 433.32 7.745 433.06 8.395C432.8 9.045 432.67 9.83 432.67 10.75C432.67 11.67 432.8 12.455 433.06 13.105C433.32 13.755 433.68 14.25 434.14 14.59C434.61 14.93 435.15 15.1 435.76 15.1Z" fill="#898989"/>
<path d="M518.49 1.844H519.66L513.72 18.8H512.55L518.49 1.844Z" fill="#898989"/>
</svg>
