<svg width="28" height="28" viewBox="0 0 28 28" fill="none" xmlns="http://www.w3.org/2000/svg">
<path fill-rule="evenodd" clip-rule="evenodd" d="M13.9665 2.16406C11.8202 2.16406 10.1331 3.83827 10.1331 5.83073V7.16406H17.7998V5.83073C17.7998 3.8425 16.1171 2.16406 13.9665 2.16406ZM19.7998 7.16406V5.83073C19.7998 2.67396 17.1566 0.164062 13.9665 0.164062C10.784 0.164062 8.13314 2.66653 8.13314 5.83073V7.16406H6.2998C4.64295 7.16406 3.2998 8.50721 3.2998 10.1641V24.8307C3.2998 26.4876 4.64295 27.8307 6.29981 27.8307H21.6331C23.29 27.8307 24.6331 26.4876 24.6331 24.8307V10.1641C24.6331 8.50721 23.29 7.16406 21.6331 7.16406H19.7998ZM17.7998 9.16406V10.4974C17.7998 11.0497 18.2475 11.4974 18.7998 11.4974C19.3521 11.4974 19.7998 11.0497 19.7998 10.4974V9.16406H21.6331C22.1854 9.16406 22.6331 9.61178 22.6331 10.1641V24.8307C22.6331 25.383 22.1854 25.8307 21.6331 25.8307H6.29981C5.74752 25.8307 5.2998 25.383 5.2998 24.8307V10.1641C5.2998 9.61178 5.74752 9.16406 6.2998 9.16406H8.13314V10.4974C8.13314 11.0497 8.58085 11.4974 9.13314 11.4974C9.68542 11.4974 10.1331 11.0497 10.1331 10.4974V9.16406H17.7998Z" fill="black"/>
</svg>
