<svg width="10" height="10" viewBox="0 0 10 10" fill="none" xmlns="http://www.w3.org/2000/svg">
<path d="M5 8C4.88042 8 4.76472 7.9771 4.65291 7.9313C4.54051 7.8855 4.44694 7.82443 4.3722 7.74809L0.246636 3.53435C0.0822119 3.36641 0 3.15267 0 2.89313C0 2.63359 0.0822119 2.41985 0.246636 2.25191C0.411061 2.08397 0.620329 2 0.874439 2C1.12855 2 1.33782 2.08397 1.50224 2.25191L5 5.82443L8.49776 2.25191C8.66218 2.08397 8.87145 2 9.12556 2C9.37967 2 9.58894 2.08397 9.75336 2.25191C9.91779 2.41985 10 2.63359 10 2.89313C10 3.15267 9.91779 3.36641 9.75336 3.53435L5.6278 7.74809C5.53812 7.83969 5.44096 7.90443 5.33632 7.94229C5.23169 7.98076 5.11958 8 5 8Z" fill="black"/>
</svg>
