<svg width="24" height="24" viewBox="0 0 24 24" fill="none" xmlns="http://www.w3.org/2000/svg">
<g clip-path="url(#clip0_527_14094)">
<path fill-rule="evenodd" clip-rule="evenodd" d="M2.75593 20.7559C2.36541 20.3654 2.36541 19.7322 2.75593 19.3417L19.0194 3.07827C19.4099 2.68774 20.0431 2.68774 20.4336 3.07827C20.8241 3.46879 20.8241 4.10196 20.4336 4.49248L4.17015 20.7559C3.77962 21.1465 3.14646 21.1465 2.75593 20.7559Z" fill="black"/>
<path fill-rule="evenodd" clip-rule="evenodd" d="M3.10832 2.89168C3.49885 2.50115 4.13201 2.50115 4.52254 2.89168L20.786 19.1551C21.1765 19.5457 21.1765 20.1788 20.786 20.5693C20.3955 20.9599 19.7623 20.9599 19.3718 20.5693L3.10832 4.30589C2.7178 3.91537 2.7178 3.2822 3.10832 2.89168Z" fill="black"/>
</g>
<defs>
<clipPath id="clip0_527_14094">
<rect width="24" height="24" fill="white"/>
</clipPath>
</defs>
</svg>
