<svg width="24" height="24" viewBox="0 0 24 24" fill="none" xmlns="http://www.w3.org/2000/svg">
<path fill-rule="evenodd" clip-rule="evenodd" d="M20.4569 2.92192C20.6458 3.4409 20.3782 4.01474 19.8592 4.20364L14.9991 5.97258C14.9992 5.98177 14.9992 5.99097 14.9992 6.00018C14.9992 7.3064 14.1644 8.41764 12.9992 8.82948V20.0002H19.9992C20.5515 20.0002 20.9992 20.4479 20.9992 21.0002C20.9992 21.5525 20.5515 22.0002 19.9992 22.0002H11.9992C11.4469 22.0002 10.9992 21.5525 10.9992 21.0002V8.82948C10.4802 8.64602 10.0267 8.32378 9.68336 7.90735L4.82416 9.67596C4.30518 9.86485 3.73134 9.59726 3.54244 9.07829C3.35355 8.55931 3.62114 7.98547 4.14012 7.79657L8.99935 6.02796C8.99927 6.01871 8.99923 6.00945 8.99923 6.00018C8.99923 4.34333 10.3424 3.00018 11.9992 3.00018C12.9326 3.00018 13.7652 3.42621 14.315 4.09322L19.1752 2.32425C19.6942 2.13536 20.268 2.40295 20.4569 2.92192ZM11.0688 6.3675C11.066 6.35903 11.0631 6.35057 11.06 6.34213C11.0569 6.33363 11.0537 6.3252 11.0504 6.31684C11.0172 6.21733 10.9992 6.11085 10.9992 6.00018C10.9992 5.4479 11.4469 5.00018 11.9992 5.00018C12.4298 5.00018 12.7992 5.2728 12.9395 5.65809C12.9778 5.76349 12.9992 5.87823 12.9992 6.00018C12.9992 6.55247 12.5515 7.00018 11.9992 7.00018C11.5766 7.00018 11.2153 6.73804 11.0688 6.3675ZM17.9992 8.00018C18.3605 8.00018 18.6937 8.19504 18.8708 8.50992L21.6653 13.478C21.6697 13.4857 21.6742 13.4937 21.6788 13.5018C21.7425 13.6147 21.8246 13.7601 21.8868 13.9509C21.9352 14.0995 21.9744 14.311 21.9825 14.4671C21.9927 14.6647 21.975 14.786 21.9587 14.8967C21.6606 16.9286 19.8594 18.0002 17.9992 18.0002C16.0451 18.0002 14.4289 16.5222 14.0733 14.9723C14.0447 14.8476 14.0281 14.7446 14.0274 14.5538C14.0269 14.4431 14.0415 14.3271 14.0512 14.2601C14.0609 14.193 14.0797 14.0777 14.1114 13.9716C14.1756 13.7572 14.2578 13.6116 14.323 13.496C14.3264 13.4899 14.3298 13.4839 14.3331 13.478L17.1276 8.50992C17.3048 8.19504 17.638 8.00018 17.9992 8.00018ZM17.9992 11.0399L16.0763 14.4585C16.0581 14.4907 16.0466 14.5112 16.0371 14.5287C16.0351 14.5325 16.0333 14.5357 16.0318 14.5386L16.0306 14.546L16.0296 14.5537C16.2006 15.2206 17.0235 16.0002 17.9992 16.0002C19.1641 16.0002 19.8651 15.3886 19.9799 14.6063L19.984 14.5785L19.9843 14.5763C19.984 14.5746 19.9837 14.5728 19.9833 14.5709C19.9831 14.5699 19.9829 14.5689 19.9828 14.568C19.9792 14.5612 19.9741 14.5516 19.9665 14.5379C19.955 14.5169 19.9415 14.4928 19.9222 14.4585L17.9992 11.0399ZM19.9793 14.5511C19.9786 14.5486 19.9785 14.5482 19.979 14.55L19.9793 14.5511ZM5.99923 12.0002C6.3605 12.0002 6.69368 12.195 6.8708 12.5099L9.66532 17.478C9.6697 17.4857 9.67418 17.4937 9.67876 17.5018C9.74251 17.6147 9.82462 17.7601 9.8868 17.9509C9.9352 18.0995 9.97443 18.311 9.98251 18.4671C9.99274 18.6647 9.97497 18.786 9.95874 18.8967C9.66059 20.9286 7.85945 22.0002 5.99923 22.0002C4.04507 22.0002 2.42886 20.5222 2.07331 18.9723C2.04469 18.8476 2.02814 18.7446 2.02735 18.5538C2.0269 18.4431 2.04149 18.3271 2.05117 18.2601C2.06085 18.193 2.07967 18.0777 2.11144 17.9716C2.17565 17.7572 2.25777 17.6116 2.32297 17.496C2.3264 17.4899 2.32979 17.4839 2.33313 17.478L5.12765 12.5099C5.30477 12.195 5.63795 12.0002 5.99923 12.0002ZM5.99923 15.0399L4.07628 18.4585C4.05815 18.4907 4.04664 18.5112 4.03711 18.5287C4.03506 18.5325 4.0333 18.5357 4.03178 18.5386L4.03063 18.546L4.0296 18.5537C4.20055 19.2206 5.02347 20.0002 5.99923 20.0002C7.16408 20.0002 7.86514 19.3886 7.97993 18.6063L7.98398 18.5785L7.98428 18.5763C7.98398 18.5746 7.98365 18.5728 7.9833 18.5709C7.98312 18.5699 7.98294 18.569 7.98277 18.568C7.9792 18.5612 7.97407 18.5516 7.96654 18.5379C7.95504 18.5169 7.94145 18.4928 7.92217 18.4585L5.99923 15.0399Z" fill="black"/>
</svg>
