<svg width="28" height="28" viewBox="0 0 28 28" fill="none" xmlns="http://www.w3.org/2000/svg">
<path fill-rule="evenodd" clip-rule="evenodd" d="M11.97 25.1297L14 27L16.03 25.1297C23.24 18.5128 28 14.1346 28 8.79292C28 4.41471 24.612 1 20.3 1C18.5519 1 16.8542 1.59105 15.4709 2.58986C14.9265 2.98288 14.4309 3.43902 14 3.94714C13.5691 3.43902 13.0735 2.98288 12.5291 2.58986C11.1458 1.59105 9.44814 1 7.7 1C3.388 1 0 4.41471 0 8.79292C0 14.1346 4.76 18.5128 11.97 25.1297ZM14 24.2806L14.6777 23.6562C18.3216 20.312 21.186 17.6741 23.1628 15.2265C25.1169 12.807 26 10.814 26 8.79292C26 5.49899 23.4872 3 20.3 3C18.4776 3 16.6885 3.86909 15.5254 5.24069L14 7.03939L12.4746 5.24069C11.3115 3.86909 9.52242 3 7.7 3C4.51275 3 2 5.49899 2 8.79292C2 10.814 2.8831 12.807 4.83718 15.2265C6.81396 17.6741 9.67836 20.312 13.3223 23.6562L13.3252 23.6588L14 24.2806Z" fill="black"/>
</svg>
