<svg width="55" height="55" viewBox="0 0 55 55" fill="none" xmlns="http://www.w3.org/2000/svg">
<path d="M27.4997 4.58337C33.7261 4.58337 34.503 4.60629 36.9459 4.72087C39.3865 4.83546 41.048 5.21817 42.5101 5.7865C44.0226 6.36858 45.2968 7.15692 46.5709 8.42879C47.7362 9.57439 48.6379 10.9601 49.2132 12.4896C49.7793 13.9494 50.1643 15.6132 50.2788 18.0538C50.3865 20.4967 50.4163 21.2736 50.4163 27.5C50.4163 33.7265 50.3934 34.5034 50.2788 36.9463C50.1643 39.3869 49.7793 41.0484 49.2132 42.5105C48.6396 44.0408 47.7377 45.4269 46.5709 46.5713C45.425 47.7362 44.0393 48.6378 42.5101 49.2136C41.0503 49.7796 39.3865 50.1646 36.9459 50.2792C34.503 50.3869 33.7261 50.4167 27.4997 50.4167C21.2732 50.4167 20.4963 50.3938 18.0534 50.2792C15.6128 50.1646 13.9513 49.7796 12.4893 49.2136C10.9592 48.6395 9.57317 47.7376 8.42842 46.5713C7.2629 45.4259 6.36118 44.0401 5.78613 42.5105C5.2178 41.0507 4.83509 39.3869 4.72051 36.9463C4.6128 34.5034 4.58301 33.7265 4.58301 27.5C4.58301 21.2736 4.60592 20.4967 4.72051 18.0538C4.83509 15.6109 5.2178 13.9517 5.78613 12.4896C6.35959 10.9592 7.26152 9.57307 8.42842 8.42879C9.5735 7.26286 10.9594 6.36109 12.4893 5.7865C13.9513 5.21817 15.6105 4.83546 18.0534 4.72087C20.4963 4.61317 21.2732 4.58337 27.4997 4.58337ZM27.4997 16.0417C24.4607 16.0417 21.5463 17.2489 19.3974 19.3978C17.2486 21.5466 16.0413 24.4611 16.0413 27.5C16.0413 30.539 17.2486 33.4534 19.3974 35.6023C21.5463 37.7512 24.4607 38.9584 27.4997 38.9584C30.5386 38.9584 33.4531 37.7512 35.6019 35.6023C37.7508 33.4534 38.958 30.539 38.958 27.5C38.958 24.4611 37.7508 21.5466 35.6019 19.3978C33.4531 17.2489 30.5386 16.0417 27.4997 16.0417V16.0417ZM42.3955 15.4688C42.3955 14.7091 42.0937 13.9804 41.5565 13.4432C41.0193 12.906 40.2907 12.6042 39.5309 12.6042C38.7712 12.6042 38.0426 12.906 37.5054 13.4432C36.9681 13.9804 36.6663 14.7091 36.6663 15.4688C36.6663 16.2285 36.9681 16.9571 37.5054 17.4944C38.0426 18.0316 38.7712 18.3334 39.5309 18.3334C40.2907 18.3334 41.0193 18.0316 41.5565 17.4944C42.0937 16.9571 42.3955 16.2285 42.3955 15.4688ZM27.4997 20.625C29.323 20.625 31.0717 21.3494 32.361 22.6387C33.6503 23.928 34.3747 25.6767 34.3747 27.5C34.3747 29.3234 33.6503 31.0721 32.361 32.3614C31.0717 33.6507 29.323 34.375 27.4997 34.375C25.6763 34.375 23.9276 33.6507 22.6383 32.3614C21.349 31.0721 20.6247 29.3234 20.6247 27.5C20.6247 25.6767 21.349 23.928 22.6383 22.6387C23.9276 21.3494 25.6763 20.625 27.4997 20.625V20.625Z" fill="url(#paint0_linear_510_12421)"/>
<defs>
<linearGradient id="paint0_linear_510_12421" x1="4.58301" y1="50.4167" x2="50.4163" y2="4.58337" gradientUnits="userSpaceOnUse">
<stop stop-color="#C27E21"/>
<stop offset="0.5" stop-color="#F1B74B"/>
<stop offset="0.902206" stop-color="#763D12"/>
</linearGradient>
</defs>
</svg>
