<svg width="24" height="24" viewBox="0 0 24 24" fill="none" xmlns="http://www.w3.org/2000/svg">
<path fill-rule="evenodd" clip-rule="evenodd" d="M9.3811 2.34943C11.3477 1.81544 13.4305 1.89502 15.3506 2.57753C17.2708 3.26004 18.9366 4.5129 20.125 6.16835V4.18701C20.125 3.93836 20.2238 3.69989 20.3996 3.52407C20.5754 3.34825 20.8138 3.24947 21.0625 3.24947C21.3111 3.24947 21.5496 3.34825 21.7254 3.52407C21.9012 3.69989 22 3.93836 22 4.18701V9.49974H16.6874C16.4388 9.49974 16.2003 9.40097 16.0245 9.22515C15.8487 9.04932 15.7499 8.81085 15.7499 8.5622C15.7499 8.31355 15.8487 8.07509 16.0245 7.89926C16.2003 7.72344 16.4388 7.62466 16.6874 7.62466H18.8462C17.867 6.09271 16.4024 4.93344 14.6865 4.33231C12.9706 3.73118 11.1027 3.72293 9.38163 4.30889C7.66052 4.89484 6.18566 6.04113 5.193 7.56438C4.20034 9.08763 3.74723 10.8998 3.90617 12.711C4.0651 14.5222 4.8269 16.2278 6.06968 17.5549C7.31247 18.8819 8.96442 19.7538 10.7613 20.0311C12.5581 20.3083 14.396 19.9748 15.981 19.084C17.5659 18.1932 18.8063 16.7966 19.5037 15.1175C19.549 15.0011 19.6171 14.8949 19.7039 14.8052C19.7908 14.7154 19.8948 14.644 20.0096 14.5949C20.1245 14.5459 20.248 14.5204 20.3729 14.5198C20.4978 14.5192 20.6216 14.5435 20.737 14.5914C20.8523 14.6393 20.9569 14.7098 21.0447 14.7987C21.1324 14.8876 21.2015 14.9931 21.2479 15.109C21.2943 15.225 21.3171 15.3491 21.3148 15.474C21.3126 15.5988 21.2855 15.722 21.235 15.8363C20.5835 17.4045 19.5434 18.781 18.2127 19.836C16.882 20.891 15.3046 21.5898 13.6292 21.8664C11.9537 22.1431 10.2354 21.9885 8.63625 21.4172C7.03708 20.846 5.60971 19.8769 4.48868 18.6013C3.36766 17.3258 2.58992 15.7857 2.22877 14.1264C1.86762 12.4671 1.93496 10.7431 2.42444 9.11697C2.91392 7.49086 3.80942 6.01618 5.02653 4.83195C6.24363 3.64771 7.74224 2.79293 9.3811 2.34818V2.34943Z" fill="black"/>
</svg>
