<svg width="18" height="18" viewBox="0 0 18 18" fill="none" xmlns="http://www.w3.org/2000/svg">
<g clip-path="url(#clip0_527_13853)">
<path d="M0.141773 8.6266L0.1705 8.59787L4.18262 4.5766C4.29163 4.46691 4.43971 4.40493 4.59436 4.40426C4.70681 4.40584 4.81632 4.44038 4.90933 4.5036C5.00233 4.56683 5.07472 4.65596 5.11754 4.75994C5.16036 4.86392 5.17172 4.97818 5.15021 5.08855C5.1287 5.19892 5.07526 5.30056 4.99653 5.38085L1.96111 8.42553L11.2972 8.42553C11.4496 8.42553 11.5957 8.48606 11.7034 8.59379C11.8112 8.70152 11.8717 8.84764 11.8717 9C11.8717 9.15236 11.8112 9.29848 11.7034 9.40621C11.5957 9.51394 11.4496 9.57447 11.2972 9.57447L1.96111 9.57447L4.99653 12.6191C5.05099 12.671 5.09435 12.7334 5.12398 12.8025C5.15361 12.8717 5.16889 12.9461 5.16889 13.0213C5.16889 13.0965 5.15361 13.1709 5.12398 13.24C5.09435 13.3092 5.05099 13.3715 4.99653 13.4234C4.94382 13.4781 4.88062 13.5217 4.81069 13.5514C4.74077 13.5811 4.66556 13.5965 4.58957 13.5965C4.51359 13.5965 4.43838 13.5811 4.36845 13.5514C4.29853 13.5217 4.23532 13.4781 4.18262 13.4234L0.1705 9.40213L0.141773 9.3734L0.122623 9.35426C0.103279 9.331 0.0871754 9.30524 0.0747452 9.27766H0.0651684C0.0223465 9.19479 0 9.10286 0 9.00957C0 8.91629 0.0223465 8.82437 0.0651684 8.74149H0.0747452C0.0871754 8.71391 0.103279 8.68815 0.122623 8.66489L0.141773 8.6266ZM11.2972 1.14894H16.6594C16.7102 1.14894 16.7589 1.16911 16.7949 1.20502C16.8308 1.24093 16.8509 1.28964 16.8509 1.34043L16.8509 16.6596C16.8509 16.7104 16.8308 16.7591 16.7949 16.795C16.7589 16.8309 16.7102 16.8511 16.6594 16.8511H11.2972C11.1448 16.8511 10.9987 16.9116 10.8909 17.0193C10.7832 17.1271 10.7227 17.2732 10.7227 17.4255C10.7227 17.5779 10.7832 17.724 10.8909 17.8317C10.9987 17.9395 11.1448 18 11.2972 18H16.6594C17.015 18 17.356 17.8588 17.6074 17.6074C17.8588 17.356 18 17.0151 18 16.6596L18 1.34043C18 0.984922 17.8588 0.64398 17.6074 0.392603C17.356 0.141224 17.015 0 16.6594 0H11.2972C11.1448 0 10.9987 0.060524 10.8909 0.168257C10.7832 0.275991 10.7227 0.42211 10.7227 0.574469C10.7227 0.726828 10.7832 0.872946 10.8909 0.98068C10.9987 1.08841 11.1448 1.14894 11.2972 1.14894Z" fill="black"/>
</g>
<defs>
<clipPath id="clip0_527_13853">
<rect width="18" height="18" fill="white" transform="matrix(-1 0 0 -1 18 18)"/>
</clipPath>
</defs>
</svg>
