<svg width="28" height="28" viewBox="0 0 28 28" fill="none" xmlns="http://www.w3.org/2000/svg">
<path d="M13.9995 0.55957C12.2635 0.55957 10.5986 1.26757 9.37113 2.52781C8.14362 3.78806 7.45401 5.49732 7.45401 7.27957C7.45401 9.06183 8.14362 10.7711 9.37113 12.0313C10.5986 13.2916 12.2635 13.9996 13.9995 13.9996C15.7354 13.9996 17.4003 13.2916 18.6278 12.0313C19.8553 10.7711 20.5449 9.06183 20.5449 7.27957C20.5449 5.49732 19.8553 3.78806 18.6278 2.52781C17.4003 1.26757 15.7354 0.55957 13.9995 0.55957ZM9.09038 7.27957C9.09038 5.94288 9.60758 4.66094 10.5282 3.71575C11.4488 2.77057 12.6975 2.23957 13.9995 2.23957C15.3014 2.23957 16.5501 2.77057 17.4707 3.71575C18.3914 4.66094 18.9086 5.94288 18.9086 7.27957C18.9086 8.61626 18.3914 9.89821 17.4707 10.8434C16.5501 11.7886 15.3014 12.3196 13.9995 12.3196C12.6975 12.3196 11.4488 11.7886 10.5282 10.8434C9.60758 9.89821 9.09038 8.61626 9.09038 7.27957ZM5.83238 15.6796C5.40142 15.6778 4.97436 15.7634 4.57569 15.9314C4.17702 16.0995 3.81458 16.3467 3.50916 16.6588C3.20374 16.971 2.96135 17.342 2.79588 17.7505C2.63042 18.1591 2.54513 18.5971 2.54492 19.0396C2.54492 21.8805 3.90801 24.0225 6.03856 25.4185C8.13638 26.7911 10.964 27.4396 13.9995 27.4396C17.0349 27.4396 19.8626 26.7911 21.9604 25.4185C24.0909 24.0241 25.454 21.8788 25.454 19.0396C25.454 18.1484 25.1092 17.2938 24.4955 16.6637C23.8817 16.0336 23.0493 15.6796 22.1813 15.6796H5.83238ZM4.18129 19.0396C4.18129 18.1105 4.91438 17.3596 5.83238 17.3596H22.1813C22.6153 17.3596 23.0315 17.5366 23.3384 17.8516C23.6452 18.1667 23.8176 18.594 23.8176 19.0396C23.8176 21.2387 22.7998 22.8767 21.08 24.0006C19.3291 25.1481 16.8386 25.7596 13.9995 25.7596C11.1604 25.7596 8.66983 25.1481 6.91892 24.0006C5.20074 22.875 4.18129 21.2404 4.18129 19.0396Z" fill="black"/>
</svg>
