<svg width="25" height="25" viewBox="0 0 25 25" fill="none" xmlns="http://www.w3.org/2000/svg">
<path d="M22.3571 6.53488H3.58163C3.27041 6.53488 2.97193 6.4185 2.75186 6.21134C2.5318 6.00418 2.40816 5.7232 2.40816 5.43023C2.40816 5.13726 2.5318 4.85629 2.75186 4.64913C2.97193 4.44196 3.27041 4.32558 3.58163 4.32558H19.5408C19.7275 4.32558 19.9066 4.25575 20.0387 4.13145C20.1707 4.00716 20.2449 3.83857 20.2449 3.66279C20.2449 3.48701 20.1707 3.31842 20.0387 3.19413C19.9066 3.06983 19.7275 3 19.5408 3H3.58163C2.89789 3.00291 2.24304 3.25988 1.75955 3.71501C1.27607 4.17014 1.00309 4.78659 1 5.43023V19.5698C1.00309 20.2134 1.27607 20.8299 1.75955 21.285C2.24304 21.7401 2.89789 21.9971 3.58163 22H22.3571C22.7929 22 23.2107 21.8371 23.5188 21.547C23.8269 21.257 24 20.8636 24 20.4535V8.0814C24 7.67123 23.8269 7.27787 23.5188 6.98785C23.2107 6.69782 22.7929 6.53488 22.3571 6.53488ZM22.5918 20.4535C22.5918 20.5121 22.5671 20.5683 22.5231 20.6097C22.4791 20.6511 22.4194 20.6744 22.3571 20.6744H3.58163C3.27041 20.6744 2.97193 20.558 2.75186 20.3509C2.5318 20.1437 2.40816 19.8627 2.40816 19.5698V7.59535C2.77204 7.76858 3.17388 7.85936 3.58163 7.86047H22.3571C22.4194 7.86047 22.4791 7.88374 22.5231 7.92517C22.5671 7.96661 22.5918 8.0228 22.5918 8.0814V20.4535ZM19.3061 14.2674C19.3061 14.4859 19.2373 14.6995 19.1084 14.8812C18.9794 15.0628 18.7961 15.2044 18.5817 15.288C18.3673 15.3716 18.1314 15.3935 17.9037 15.3509C17.6761 15.3082 17.467 15.203 17.3029 15.0485C17.1388 14.8941 17.027 14.6972 16.9817 14.4829C16.9365 14.2687 16.9597 14.0466 17.0485 13.8447C17.1373 13.6429 17.2877 13.4703 17.4807 13.349C17.6737 13.2276 17.9006 13.1628 18.1327 13.1628C18.4439 13.1628 18.7424 13.2792 18.9624 13.4863C19.1825 13.6935 19.3061 13.9745 19.3061 14.2674Z" fill="black"/>
<path fill-rule="evenodd" clip-rule="evenodd" d="M3.58144 2.7998L19.5406 2.79981C19.7766 2.79981 20.0052 2.88795 20.1756 3.04831C20.3463 3.20905 20.4447 3.42974 20.4447 3.6626C20.4447 3.89546 20.3463 4.11614 20.1756 4.27689C20.0052 4.43725 19.7766 4.52539 19.5406 4.52539H3.58144C3.31949 4.52539 3.07052 4.62346 2.88876 4.79456C2.7074 4.96528 2.60797 5.19414 2.60797 5.43004C2.60797 5.66593 2.7074 5.8948 2.88876 6.06552C3.07052 6.23662 3.31949 6.33469 3.58144 6.33469H22.3569C22.8419 6.33469 23.3093 6.51594 23.6557 6.84203C24.0025 7.1685 24.1998 7.61396 24.1998 8.0812V20.4533C24.1998 20.9205 24.0025 21.366 23.6557 21.6925C23.3093 22.0186 22.8419 22.1998 22.3569 22.1998H3.58144C2.84871 22.1967 2.14384 21.9214 1.62227 21.4304C1.1003 20.9391 0.803166 20.2709 0.799807 19.5705L0.799805 5.43004C0.803164 4.72967 1.1003 4.06054 1.62227 3.56919C2.14384 3.07821 2.84871 2.80292 3.58144 2.7998ZM3.5809 8.06027C3.24812 8.05937 2.91876 8.00274 2.60797 7.89359V19.5696C2.60797 19.8055 2.7074 20.0343 2.88876 20.2051C3.07052 20.3762 3.31949 20.4742 3.58144 20.4742H22.3569C22.3699 20.4742 22.3801 20.4693 22.3858 20.4639C22.3911 20.4589 22.3916 20.4548 22.3916 20.4533V8.0812C22.3916 8.07969 22.3911 8.0756 22.3858 8.07061C22.3801 8.06523 22.3699 8.06027 22.3569 8.06027H3.5809ZM2.40797 19.5696C2.40797 19.8625 2.5316 20.1435 2.75167 20.3507C2.97174 20.5578 3.27021 20.6742 3.58144 20.6742H22.3569C22.4192 20.6742 22.4789 20.651 22.5229 20.6095C22.5669 20.5681 22.5916 20.5119 22.5916 20.4533V8.0812C22.5916 8.02261 22.5669 7.96641 22.5229 7.92498C22.4789 7.88355 22.4192 7.86027 22.3569 7.86027H3.58144C3.24708 7.85937 2.9167 7.79816 2.60797 7.68065C2.5402 7.65485 2.47347 7.62634 2.40797 7.59516V19.5696ZM0.999805 5.43004C1.00289 4.7864 1.27588 4.16994 1.75936 3.71482C2.24284 3.25969 2.8977 3.00271 3.58144 2.99981H19.5406C19.7274 2.99981 19.9064 3.06964 20.0385 3.19393C20.1705 3.31823 20.2447 3.48681 20.2447 3.6626C20.2447 3.83838 20.1705 4.00696 20.0385 4.13126C19.9064 4.25556 19.7274 4.32539 19.5406 4.32539H3.58144C3.27021 4.32539 2.97174 4.44177 2.75167 4.64893C2.5316 4.8561 2.40797 5.13707 2.40797 5.43004C2.40797 5.72301 2.5316 6.00398 2.75167 6.21115C2.97174 6.41831 3.27021 6.53469 3.58144 6.53469H22.3569C22.7927 6.53469 23.2105 6.69763 23.5186 6.98765C23.8267 7.27768 23.9998 7.67104 23.9998 8.0812V20.4533C23.9998 20.8635 23.8267 21.2568 23.5186 21.5468C23.2105 21.8369 22.7927 21.9998 22.3569 21.9998H3.58144C2.8977 21.9969 2.24284 21.7399 1.75936 21.2848C1.27588 20.8297 1.00289 20.2132 0.999805 19.5696V5.43004ZM19.5059 14.2672C19.5059 14.5281 19.4237 14.7819 19.2713 14.9967C19.1189 15.2113 18.9037 15.3768 18.6542 15.4741C18.4047 15.5714 18.1308 15.5967 17.8667 15.5473C17.6026 15.4978 17.3584 15.3755 17.1656 15.194C16.9727 15.0124 16.8398 14.7795 16.7859 14.5241C16.7319 14.2686 16.7597 14.0038 16.8653 13.764C16.9707 13.5243 17.1484 13.3214 17.374 13.1795C17.5995 13.0376 17.8634 12.9626 18.1325 12.9626C18.493 12.9626 18.8409 13.0973 19.0993 13.3405C19.3581 13.5841 19.5059 13.9172 19.5059 14.2672ZM19.1082 14.881C19.2371 14.6993 19.3059 14.4857 19.3059 14.2672C19.3059 13.9743 19.1823 13.6933 18.9622 13.4861C18.7422 13.279 18.4437 13.1626 18.1325 13.1626C17.9004 13.1626 17.6735 13.2274 17.4805 13.3488C17.2875 13.4701 17.1371 13.6427 17.0483 13.8445C16.9595 14.0464 16.9363 14.2685 16.9815 14.4828C17.0268 14.697 17.1386 14.8939 17.3027 15.0484C17.4668 15.2028 17.6759 15.308 17.9035 15.3507C18.1312 15.3933 18.3671 15.3714 18.5815 15.2878C18.7959 15.2042 18.9792 15.0626 19.1082 14.881Z" fill="black"/>
</svg>
