<svg width="26" height="26" viewBox="0 0 26 26" fill="none" xmlns="http://www.w3.org/2000/svg">
<path d="M0 25.1113C0 25.3483 0.0719395 25.5557 0.21582 25.7334C0.359701 25.9111 0.558594 26 0.8125 26C1.03255 26 1.22298 25.9196 1.38379 25.7588L11.3496 15.8057C12.1621 16.4743 13.0508 16.9863 14.0156 17.3418C14.9805 17.6973 15.9961 17.875 17.0625 17.875C17.8835 17.875 18.6748 17.7692 19.4365 17.5576C20.1982 17.346 20.9092 17.0456 21.5693 16.6562C22.2295 16.2669 22.8304 15.8014 23.3721 15.2598C23.9137 14.7181 24.3835 14.113 24.7812 13.4443C25.179 12.7757 25.4795 12.0648 25.6826 11.3115C25.8857 10.5583 25.9915 9.76693 26 8.9375C26 8.11654 25.8942 7.3252 25.6826 6.56348C25.471 5.80176 25.1706 5.09082 24.7812 4.43066C24.3919 3.77051 23.9264 3.1696 23.3848 2.62793C22.8431 2.08626 22.238 1.61654 21.5693 1.21875C20.9007 0.820964 20.1898 0.520508 19.4365 0.317383C18.6833 0.114258 17.8919 0.00846354 17.0625 0C16.2415 0 15.4502 0.105794 14.6885 0.317383C13.9268 0.528971 13.2158 0.829427 12.5557 1.21875C11.8955 1.60807 11.2946 2.07357 10.7529 2.61523C10.2113 3.1569 9.74154 3.76204 9.34375 4.43066C8.94596 5.09928 8.64551 5.81022 8.44238 6.56348C8.23926 7.31673 8.13346 8.10807 8.125 8.9375C8.125 9.99544 8.30273 11.0068 8.6582 11.9717C9.01367 12.9365 9.52572 13.8294 10.1943 14.6504L9.4707 15.374C9.11523 15.7295 8.68359 16.1527 8.17578 16.6436C7.66797 17.1344 7.11784 17.6719 6.52539 18.2559C5.93294 18.8398 5.33203 19.4365 4.72266 20.0459C4.11328 20.6553 3.52506 21.2477 2.95801 21.8232C2.39095 22.3988 1.88737 22.9193 1.44727 23.3848C1.00716 23.8503 0.655924 24.2354 0.393555 24.54C0.131186 24.8447 0 25.0352 0 25.1113ZM17.0625 16.25C16.0553 16.25 15.1074 16.0596 14.2188 15.6787C13.3301 15.2979 12.5557 14.7731 11.8955 14.1045C11.2354 13.4359 10.7148 12.6615 10.334 11.7812C9.95312 10.901 9.75846 9.95312 9.75 8.9375C9.75 7.93034 9.94043 6.98242 10.3213 6.09375C10.7021 5.20508 11.2269 4.43066 11.8955 3.77051C12.5641 3.11035 13.3385 2.58984 14.2188 2.20898C15.099 1.82812 16.0469 1.63346 17.0625 1.625C18.0697 1.625 19.0176 1.81543 19.9062 2.19629C20.7949 2.57715 21.5693 3.10189 22.2295 3.77051C22.8896 4.43913 23.4102 5.21354 23.791 6.09375C24.1719 6.97396 24.3665 7.92188 24.375 8.9375C24.375 9.94466 24.1846 10.8926 23.8037 11.7812C23.4229 12.6699 22.8981 13.4443 22.2295 14.1045C21.5609 14.7646 20.7865 15.2852 19.9062 15.666C19.026 16.0469 18.0781 16.2415 17.0625 16.25Z" fill="black"/>
</svg>
